<svg width="66" height="66" viewBox="0 0 66 66" fill="none" xmlns="http://www.w3.org/2000/svg">
<rect width="66" height="66" rx="33" fill="url(#paint0_linear_3529_7)"/>
<mask id="path-2-inside-1_3529_7" fill="white">
<path d="M20 20C20 18.8954 20.8954 18 22 18H44C45.1046 18 46 18.8954 46 20V39.2146C46 40.3192 45.1046 41.2146 44 41.2146H38.469C37.2567 41.2146 36.1489 41.944 35.8663 43.1229C35.4847 44.7146 35.2621 46.9021 36.4667 48.0546C38.5 50 38.4712 53.0351 36.4667 54.8946C34.5229 56.6978 31.4771 56.6978 29.5333 54.8946C27.5288 53.0351 27.5 50 29.5333 48.0546C30.7379 46.9021 30.5153 44.7146 30.1337 43.1229C29.8511 41.944 28.7433 41.2146 27.531 41.2146H22C20.8954 41.2146 20 40.3192 20 39.2146V20Z"/>
</mask>
<path d="M29.5333 54.8946L30.8935 53.4284L29.5333 54.8946ZM36.4667 54.8946L35.1065 53.4284L36.4667 54.8946ZM22 20H44V16H22V20ZM44 20V39.2146H48V20H44ZM22 39.2146V20H18V39.2146H22ZM27.531 39.2146H22V43.2146H27.531V39.2146ZM44 39.2146H38.469V43.2146H44V39.2146ZM35.1065 53.4284C33.9298 54.5199 32.0702 54.5199 30.8935 53.4284L28.1732 56.3609C30.8841 58.8757 35.1159 58.8757 37.8268 56.3609L35.1065 53.4284ZM30.8935 53.4284C29.7467 52.3645 29.7011 50.662 30.916 49.4997L28.1507 46.6095C25.2989 49.338 25.3108 53.7056 28.1732 56.3609L30.8935 53.4284ZM30.916 49.4997C32.0374 48.4268 32.365 47.0006 32.4255 45.8594C32.4871 44.6988 32.2913 43.5438 32.0786 42.6566L28.1888 43.5891C28.3577 44.2937 28.464 45.0283 28.4311 45.6475C28.3972 46.2861 28.2339 46.5299 28.1507 46.6095L30.916 49.4997ZM33.9214 42.6566C33.7087 43.5438 33.5129 44.6988 33.5745 45.8594C33.635 47.0006 33.9626 48.4268 35.0841 49.4997L37.8493 46.6095C37.7661 46.5299 37.6028 46.2861 37.5689 45.6475C37.536 45.0283 37.6423 44.2937 37.8112 43.5891L33.9214 42.6566ZM35.0841 49.4997C36.2989 50.662 36.2533 52.3645 35.1065 53.4284L37.8268 56.3609C40.6892 53.7056 40.7011 49.338 37.8493 46.6095L35.0841 49.4997ZM38.469 39.2146C36.506 39.2146 34.4578 40.4192 33.9214 42.6566L37.8112 43.5891C37.8315 43.5046 37.8781 43.4277 37.9778 43.3567C38.0871 43.2791 38.258 43.2146 38.469 43.2146V39.2146ZM27.531 43.2146C27.742 43.2146 27.9129 43.2791 28.0222 43.3567C28.1219 43.4277 28.1685 43.5046 28.1888 43.5891L32.0786 42.6566C31.5422 40.4192 29.494 39.2146 27.531 39.2146V43.2146ZM18 39.2146C18 41.4237 19.7909 43.2146 22 43.2146V39.2146H22H18ZM44 39.2146V43.2146C46.2091 43.2146 48 41.4237 48 39.2146H44ZM44 20V20H48C48 17.7909 46.2091 16 44 16V20ZM22 16C19.7909 16 18 17.7909 18 20H22V20V16Z" fill="white" mask="url(#path-2-inside-1_3529_7)"/>
<line x1="20" y1="35.24" x2="46" y2="35.24" stroke="white" stroke-width="2"/>
<line x1="20" y1="30.0945" x2="46" y2="30.0945" stroke="white" stroke-width="2"/>
<defs>
<linearGradient id="paint0_linear_3529_7" x1="11.0939" y1="-5.84751e-06" x2="67.6866" y2="16.1816" gradientUnits="userSpaceOnUse">
<stop stop-color="#3F0F72"/>
<stop offset="1" stop-color="#791281"/>
</linearGradient>
</defs>
</svg>
